<svg width="64" height="64" viewBox="0 0 64 64" fill="none" xmlns="http://www.w3.org/2000/svg">
<path fill-rule="evenodd" clip-rule="evenodd" d="M37.7852 10.0819C38.2922 10.3007 38.5259 10.8892 38.307 11.3963L33.0208 23.6441H53.3974C56.2873 23.6441 58.2236 26.6147 57.057 29.2587L50.282 44.6146C49.6423 46.0645 48.2071 47 46.6224 47H16.3776C14.7929 47 13.3577 46.0645 12.718 44.6146L5.94297 29.2587C4.77642 26.6147 6.71266 23.6441 9.60261 23.6441H30.8424L36.4708 10.6037C36.6896 10.0967 37.2781 9.86302 37.7852 10.0819ZM9.60261 25.6441C8.15763 25.6441 7.18951 27.1294 7.77279 28.4514L14.5478 43.8073C14.8677 44.5323 15.5853 45 16.3776 45H46.6224C47.4147 45 48.1323 44.5322 48.4522 43.8073L55.2272 28.4514C55.8105 27.1294 54.8424 25.6441 53.3974 25.6441H9.60261Z" fill="black"/>
</svg>
