<?xml version="1.0" standalone="no"?>
<!DOCTYPE svg PUBLIC "-//W3C//DTD SVG 20010904//EN"
 "http://www.w3.org/TR/2001/REC-SVG-20010904/DTD/svg10.dtd">
<svg version="1.0" xmlns="http://www.w3.org/2000/svg"
 width="138.000000pt" height="106.000000pt" viewBox="0 0 138.000000 106.000000"
 preserveAspectRatio="xMidYMid meet">

<g transform="translate(0.000000,106.000000) scale(0.100000,-0.100000)"
fill="#000000" stroke="none">
<path d="M595 1027 c-74 -20 -91 -31 -192 -132 -106 -106 -109 -114 -98 -269
9 -130 -1 -155 -99 -256 -40 -41 -80 -89 -90 -107 -31 -61 -13 -138 42 -178
40 -29 151 -28 212 2 109 54 181 165 190 292 l5 76 73 -71 73 -70 -26 -55
c-33 -72 -33 -111 1 -138 84 -66 147 31 92 143 l-21 44 32 41 c18 22 49 54 70
70 l38 31 5 -69 c12 -165 134 -303 282 -318 108 -11 176 39 176 128 0 65 -14
90 -95 169 -104 101 -120 144 -104 268 15 110 1 170 -51 220 -21 21 -64 63
-96 94 -36 35 -77 64 -104 74 -60 21 -248 28 -315 11z m292 -42 c102 -30 159
-138 134 -254 -13 -60 -43 -108 -75 -121 -13 -4 -44 -4 -72 2 -90 17 -251 11
-329 -13 -106 -33 -135 -70 -179 -229 -30 -110 -107 -193 -190 -207 l-36 -6 0
40 c0 45 29 89 100 151 25 22 59 64 74 92 29 52 29 55 23 173 -5 94 -3 127 9
155 15 36 42 72 53 72 3 0 6 -31 7 -70 1 -65 16 -106 34 -95 5 3 6 41 3 84 -9
134 37 198 167 234 75 20 194 17 277 -8z m215 -177 c22 -31 23 -41 20 -167 -3
-166 7 -192 118 -307 88 -92 104 -129 76 -181 -62 -120 -276 -45 -353 124 -20
44 -25 71 -26 139 0 73 -2 84 -18 84 -22 0 -107 -67 -150 -118 l-33 -40 -84
79 c-46 43 -92 79 -103 79 -17 0 -19 -7 -19 -68 0 -38 -7 -91 -15 -120 -30
-99 -124 -191 -217 -212 -46 -10 -59 -10 -93 5 l-40 16 53 18 c93 32 146 100
193 253 35 113 62 147 141 175 59 20 221 24 338 9 63 -8 67 -7 98 19 47 40 63
78 69 167 3 43 9 78 14 78 4 0 18 -15 31 -32z m-332 -635 c0 -12 -9 -27 -21
-33 -45 -25 -65 40 -32 103 l16 32 18 -40 c10 -22 19 -50 19 -62z"/>
<path d="M601 935 c-24 -7 -54 -24 -67 -36 -27 -25 -48 -89 -35 -102 13 -13
31 1 31 24 0 36 51 76 113 89 37 7 57 16 57 26 0 18 -40 17 -99 -1z"/>
</g>
</svg>
