<svg width="24" height="24" viewBox="0 0 24 24" fill="none" xmlns="http://www.w3.org/2000/svg">
<path d="M11.9963 22.5005C11.9274 22.5006 11.8592 22.4864 11.796 22.4589C11.7328 22.4313 11.676 22.3909 11.6292 22.3403L2.79516 12.8081C1.6422 11.5247 1.00439 9.86042 1.00439 8.13522C1.00439 6.41002 1.6422 4.74572 2.79516 3.46237C3.35026 2.85072 4.02598 2.3606 4.77977 2.02288C5.53355 1.68515 6.34909 1.50712 7.17505 1.5C8.00183 1.5065 8.81829 1.68423 9.57296 2.02198C10.3276 2.35974 11.0041 2.85018 11.5598 3.4624L11.9963 3.93359L12.4319 3.4624C12.9863 2.84971 13.6624 2.35948 14.4171 2.02308C15.1718 1.68668 15.9884 1.51152 16.8147 1.50879H16.8157C17.6417 1.51163 18.4579 1.68685 19.2123 2.02325C19.9667 2.35965 20.6425 2.84983 21.1966 3.4624C22.3573 4.74193 23.0003 6.40767 23.0003 8.13525C23.0003 9.86283 22.3573 11.5286 21.1966 12.8081L12.3636 22.3403C12.3167 22.391 12.2599 22.4313 12.1967 22.4589C12.1335 22.4864 12.0653 22.5006 11.9963 22.5005ZM7.17505 2.5C6.48686 2.50744 5.80765 2.65716 5.18011 2.93975C4.55258 3.22234 3.99028 3.63168 3.52857 4.14206C2.54347 5.23873 1.99854 6.66084 1.99854 8.13498C1.99854 9.60912 2.54347 11.0312 3.52857 12.1279L11.9963 21.2651L20.4622 12.1279C21.4521 11.0336 22.0003 9.6106 22.0003 8.13498C22.0003 6.65936 21.4521 5.23635 20.4622 4.14206C20.0014 3.63084 19.439 3.22148 18.8109 2.94022C18.1828 2.65897 17.5029 2.51201 16.8147 2.50876C16.1262 2.51209 15.4461 2.65908 14.8176 2.94032C14.1892 3.22157 13.6265 3.63087 13.1653 4.14206L12.3635 5.00876C12.3156 5.05726 12.2585 5.09576 12.1955 5.12203C12.1326 5.14831 12.065 5.16184 11.9968 5.16184C11.9286 5.16184 11.8611 5.14831 11.7981 5.12203C11.7352 5.09576 11.6781 5.05726 11.6301 5.00876L10.8264 4.14206C10.3641 3.63112 9.80103 3.22144 9.17261 2.93884C8.54419 2.65623 7.86406 2.50681 7.17505 2.5Z" fill="#242222"/>
</svg>
