<svg width="24" height="24" viewBox="0 0 24 24" fill="none" xmlns="http://www.w3.org/2000/svg">
<path d="M16 9.5C15.9343 9.50004 15.8693 9.48713 15.8086 9.46202C15.7479 9.4369 15.6928 9.40008 15.6464 9.35364C15.5999 9.3072 15.5631 9.25207 15.538 9.19139C15.5129 9.13071 15.5 9.06567 15.5 9V6C15.5 5.07174 15.1313 4.1815 14.4749 3.52513C13.8185 2.86875 12.9283 2.5 12 2.5C11.0717 2.5 10.1815 2.86875 9.52513 3.52513C8.86875 4.1815 8.5 5.07174 8.5 6V9C8.5 9.13261 8.44732 9.25979 8.35355 9.35355C8.25979 9.44732 8.13261 9.5 8 9.5C7.86739 9.5 7.74021 9.44732 7.64645 9.35355C7.55268 9.25979 7.5 9.13261 7.5 9V6C7.5 4.80653 7.97411 3.66193 8.81802 2.81802C9.66193 1.97411 10.8065 1.5 12 1.5C13.1935 1.5 14.3381 1.97411 15.182 2.81802C16.0259 3.66193 16.5 4.80653 16.5 6V9C16.5 9.06567 16.4871 9.13071 16.462 9.19139C16.4369 9.25207 16.4001 9.3072 16.3536 9.35364C16.3072 9.40008 16.2521 9.4369 16.1914 9.46202C16.1307 9.48713 16.0657 9.50004 16 9.5Z" fill="#242222"/>
<path d="M18.3496 22.5H5.65039C5.3747 22.4955 5.10313 22.4324 4.85375 22.3148C4.60437 22.1972 4.3829 22.0278 4.2041 21.8179C3.93637 21.4995 3.73735 21.1292 3.61954 20.7302C3.50173 20.3313 3.46769 19.9123 3.51953 19.4995L4.9502 6.5H19.0498L20.4805 19.4995C20.5323 19.9123 20.4983 20.3313 20.3805 20.7302C20.2627 21.1292 20.0636 21.4995 19.7959 21.8179C19.6171 22.0278 19.3956 22.1972 19.1463 22.3148C18.8969 22.4324 18.6253 22.4955 18.3496 22.5ZM5.84668 7.5L4.51368 19.6089C4.4762 19.882 4.49554 20.1599 4.57049 20.4251C4.64544 20.6904 4.77438 20.9373 4.94923 21.1504C5.03473 21.2549 5.14143 21.3402 5.2623 21.4004C5.38317 21.4607 5.51544 21.4946 5.65039 21.5H18.3496C18.4846 21.4946 18.6168 21.4607 18.7377 21.4004C18.8586 21.3402 18.9653 21.2549 19.0508 21.1504C19.2256 20.9373 19.3546 20.6904 19.4295 20.4251C19.5045 20.1599 19.5238 19.882 19.4863 19.6089L18.1533 7.5H5.84668Z" fill="#242222"/>
</svg>
