<svg width="32" height="32" viewBox="0 0 32 32" fill="none" xmlns="http://www.w3.org/2000/svg">
<path d="M0.75 0.75H6.20455L9.85909 19.8786C9.98373 20.5363 10.3253 21.1271 10.8239 21.5476C11.3225 21.968 11.9464 22.1914 12.5864 22.1786H25.8409C26.4809 22.1914 27.1047 21.968 27.6034 21.5476C28.102 21.1271 28.4435 20.5363 28.5682 19.8786L30.75 7.89286H7.56818M13.0227 29.3214C13.0227 30.1104 12.4122 30.75 11.6591 30.75C10.906 30.75 10.2955 30.1104 10.2955 29.3214C10.2955 28.5324 10.906 27.8929 11.6591 27.8929C12.4122 27.8929 13.0227 28.5324 13.0227 29.3214ZM28.0227 29.3214C28.0227 30.1104 27.4122 30.75 26.6591 30.75C25.906 30.75 25.2955 30.1104 25.2955 29.3214C25.2955 28.5324 25.906 27.8929 26.6591 27.8929C27.4122 27.8929 28.0227 28.5324 28.0227 29.3214Z" stroke="#1A1A1A" stroke-width="1.5" stroke-linecap="round" stroke-linejoin="round"/>
</svg>
