<svg width="24" height="24" viewBox="0 0 24 24" fill="none" xmlns="http://www.w3.org/2000/svg">
<path d="M10 18.5C8.31886 18.5 6.67548 18.0015 5.27766 17.0675C3.87984 16.1335 2.79037 14.806 2.14703 13.2528C1.50368 11.6996 1.33535 9.99057 1.66333 8.34174C1.9913 6.6929 2.80085 5.17834 3.9896 3.9896C5.17834 2.80085 6.6929 1.9913 8.34174 1.66333C9.99057 1.33535 11.6996 1.50368 13.2528 2.14703C14.806 2.79037 16.1335 3.87984 17.0675 5.27766C18.0015 6.67548 18.5 8.31886 18.5 10C18.4974 12.2535 17.601 14.414 16.0075 16.0075C14.414 17.601 12.2535 18.4974 10 18.5ZM10 2.5C8.51664 2.5 7.0666 2.93987 5.83323 3.76398C4.59986 4.58809 3.63856 5.75943 3.07091 7.12988C2.50325 8.50032 2.35473 10.0083 2.64411 11.4632C2.9335 12.918 3.64781 14.2544 4.6967 15.3033C5.7456 16.3522 7.08197 17.0665 8.53683 17.3559C9.99168 17.6453 11.4997 17.4968 12.8701 16.9291C14.2406 16.3614 15.4119 15.4001 16.236 14.1668C17.0601 12.9334 17.5 11.4834 17.5 10C17.4978 8.01155 16.707 6.10515 15.3009 4.6991C13.8949 3.29305 11.9885 2.50217 10 2.5Z" fill="#242222"/>
<path d="M22 22.5C21.9343 22.5001 21.8693 22.4872 21.8086 22.462C21.748 22.4369 21.6929 22.4 21.6465 22.3535L15.6465 16.3535C15.5554 16.2592 15.505 16.1329 15.5062 16.0018C15.5073 15.8707 15.5599 15.7453 15.6526 15.6526C15.7453 15.5599 15.8707 15.5073 16.0018 15.5062C16.1329 15.505 16.2592 15.5554 16.3535 15.6465L22.3535 21.6465C22.4234 21.7164 22.471 21.8055 22.4903 21.9025C22.5095 21.9995 22.4996 22.1 22.4618 22.1913C22.424 22.2827 22.3599 22.3607 22.2777 22.4157C22.1955 22.4706 22.0989 22.5 22 22.5Z" fill="#242222"/>
<path d="M4.3291 10.5C4.26343 10.5 4.19839 10.4871 4.13771 10.462C4.07703 10.4369 4.0219 10.4001 3.97546 10.3536C3.92903 10.3072 3.8922 10.2521 3.86708 10.1914C3.84197 10.1307 3.82906 10.0657 3.8291 10C3.83098 8.36395 4.48173 6.79545 5.63859 5.63859C6.79545 4.48173 8.36395 3.83098 10 3.8291C10.1326 3.8291 10.2598 3.88178 10.3536 3.97555C10.4473 4.06932 10.5 4.19649 10.5 4.3291C10.5 4.46171 10.4473 4.58889 10.3536 4.68266C10.2598 4.77642 10.1326 4.8291 10 4.8291C8.62906 4.83063 7.31471 5.37591 6.34531 6.34531C5.37591 7.31471 4.83063 8.62906 4.8291 10C4.82914 10.0657 4.81623 10.1307 4.79112 10.1914C4.76601 10.2521 4.72918 10.3072 4.68274 10.3536C4.6363 10.4001 4.58117 10.4369 4.52049 10.462C4.45981 10.4871 4.39477 10.5 4.3291 10.5Z" fill="#242222"/>
</svg>
